<svg width="37" height="34" viewBox="0 0 37 34" fill="none" xmlns="http://www.w3.org/2000/svg">
<path d="M10.4742 15.1778H10.4866L10.499 15.177C10.6476 15.167 10.7941 15.216 10.9068 15.3134C11.0162 15.408 11.0852 15.5408 11.0998 15.6844V19.0434C11.0851 19.1867 11.0161 19.3192 10.9068 19.4135C10.7942 19.5106 10.6478 19.5594 10.4995 19.5492L10.4869 19.5483H10.4742H4.78761H4.77496L4.76233 19.5492C4.61399 19.5594 4.46763 19.5106 4.35503 19.4135C4.24567 19.3192 4.17673 19.1867 4.16207 19.0434V15.6844C4.17663 15.5408 4.24559 15.408 4.35505 15.3134C4.46773 15.216 4.61426 15.167 4.76282 15.177L4.7752 15.1778H4.78761H10.4742Z" fill="#C34142" stroke="#DB002A" stroke-width="0.740148"/>
<path d="M19.2225 15.1778H19.2349L19.2473 15.177C19.3959 15.167 19.5424 15.216 19.6551 15.3134C19.7645 15.408 19.8335 15.5408 19.8481 15.6844V19.0434C19.8334 19.1867 19.7645 19.3192 19.6551 19.4135C19.5425 19.5106 19.3961 19.5594 19.2478 19.5492L19.2352 19.5483H19.2225H13.5359H13.5235L13.5111 19.5492C13.3629 19.5591 13.2169 19.5103 13.1045 19.4133L12.8626 19.6933L13.1045 19.4133C12.9954 19.319 12.9266 19.1866 12.9121 19.0435V15.6843C12.9265 15.5409 12.9953 15.4082 13.1045 15.3137C13.217 15.2163 13.3632 15.1673 13.5116 15.177L13.5237 15.1778H13.5359H19.2225Z" fill="#C34142" stroke="#DB002A" stroke-width="0.740148"/>
<path d="M10.4742 22.3303H10.4868L10.4995 22.3294C10.6479 22.3193 10.7943 22.3681 10.907 22.4654C11.0164 22.5598 11.0853 22.6926 11.0998 22.8361V26.1954C11.0852 26.339 11.0162 26.4718 10.9068 26.5664C10.7941 26.6637 10.6476 26.7127 10.499 26.7027L10.4866 26.7019H10.4742H4.78761H4.7752L4.76282 26.7027C4.61422 26.7127 4.46771 26.6637 4.35505 26.5664C4.24559 26.4718 4.17663 26.339 4.16207 26.1954V22.8353C4.17673 22.6919 4.24568 22.5594 4.35503 22.4651C4.46763 22.368 4.61399 22.3192 4.76233 22.3294L4.77496 22.3303H4.78761H10.4742Z" fill="#C34142" stroke="#DB002A" stroke-width="0.740148"/>
<path d="M19.2225 22.3303H19.2352L19.2478 22.3294C19.3962 22.3192 19.5427 22.3681 19.6553 22.4654C19.7647 22.5598 19.8336 22.6926 19.8481 22.8361V26.1954C19.8335 26.339 19.7645 26.4718 19.6551 26.5664C19.5424 26.6637 19.3959 26.7127 19.2473 26.7027L19.2349 26.7019H19.2225H13.5359H13.5237L13.5116 26.7027C13.3632 26.7125 13.217 26.6634 13.1045 26.5661C12.9953 26.4715 12.9265 26.3389 12.9121 26.1955V22.8352C12.9266 22.692 12.9954 22.5597 13.1045 22.4654C13.2169 22.3683 13.363 22.3195 13.5111 22.3294L13.5235 22.3303H13.5359H19.2225Z" fill="#C34142" stroke="#DB002A" stroke-width="0.740148"/>
<path d="M13.2048 3.70504V2.78023H23.8068V3.71131C23.5273 3.71118 23.2448 3.71105 22.9597 3.71092C19.8308 3.70945 16.3896 3.70784 13.2048 3.70504Z" fill="#C34142" stroke="#DB002A" stroke-width="0.740148"/>
<path d="M28.966 32.2245C27.5458 32.2241 26.1576 31.8026 24.9768 31.0133C23.7957 30.2239 22.8752 29.1019 22.3317 27.7893C21.7882 26.4767 21.6462 25.0324 21.9235 23.6391C22.2009 22.2457 22.8852 20.9659 23.8899 19.9615C24.8946 18.9571 26.1745 18.2731 27.5679 17.9961C28.9613 17.7191 30.4056 17.8615 31.718 18.4053C33.0305 18.9491 34.1523 19.8699 34.9414 21.0512C35.7306 22.2325 36.1517 23.6213 36.1516 25.0419L28.966 32.2245ZM28.966 32.2245C29.9096 32.225 30.8439 32.0396 31.7157 31.6788C32.5875 31.3181 33.3797 30.789 34.047 30.122C34.7143 29.455 35.2437 28.663 35.6048 27.7914C35.9659 26.9197 36.1517 25.9855 36.1516 25.042L28.966 32.2245ZM34.9376 20.2541L35.2342 20.1742L34.9943 20.3591C36.1342 21.8388 36.697 23.6825 36.578 25.5466C36.4589 27.4107 35.666 29.1678 34.3471 30.4905C33.0282 31.8131 31.2734 32.611 29.4096 32.7353C27.5459 32.8597 25.7006 32.3021 24.2177 31.1664L23.6226 30.7106V31.0952H1.85831C1.47772 31.0952 1.11272 30.944 0.843602 30.6749C0.574486 30.4058 0.423297 30.0407 0.423297 29.6602V4.21009C0.423297 3.82951 0.574481 3.46453 0.843602 3.19541C1.11272 2.92629 1.47772 2.7751 1.85831 2.7751H5.64558V3.6962H5.63359H5.6202H5.60684H5.59349H5.58015H5.56684H5.55355H5.54027H5.52701H5.51377H5.50055H5.48734H5.47416H5.46099H5.44784H5.43471H5.4216H5.40851H5.39544H5.38238H5.36934H5.35633H5.34333H5.33035H5.31738H5.30444H5.29152H5.27861H5.26572H5.25285H5.24001H5.22718H5.21436H5.20157H5.1888H5.17604H5.16331H5.15059H5.13789H5.12522H5.11256H5.09992H5.0873H5.0747H5.06211H5.04955H5.03701H5.02448H5.01198H4.99949H4.98703H4.97458H4.96215H4.94975H4.93736H4.92499H4.91264H4.90031H4.888H4.87571H4.86344H4.85119H4.83896H4.82675H4.81456H4.80239H4.79023H4.7781H4.76599H4.7539H4.74183H4.72977H4.71774H4.70573H4.69374H4.68177H4.66982H4.65788H4.64597H4.63408H4.62221H4.61036H4.59853H4.58672H4.57493H4.56316H4.55141H4.53968H4.52797H4.51628H4.50462H4.49297H4.48134H4.46974H4.45815H4.44659H4.43504H4.42352H4.41202H4.40054H4.38908H4.37764H4.36622H4.35482H4.34344H4.33208H4.32075H4.30943H4.29814H4.28686H4.27561H4.26438H4.25317H4.24198H4.23081H4.21967H4.20854H4.19744H4.18635H4.17529H4.16425H4.15323H4.14224H4.13126H4.1203H4.10937H4.09846H4.08757H4.0767H4.06585H4.05502H4.04422H4.03344H4.02267H4.01193H4.00122H3.99052H3.97985H3.96919H3.95856H3.94795H3.93737H3.9268H3.91626H3.90573H3.89524H3.88476H3.8743H3.86387H3.85346H3.84307H3.8327H3.82235H3.81203H3.80173H3.79145H3.78119H3.77096H3.76075H3.75056H3.74039H3.73025H3.72012H3.71002H3.69995H3.68989H3.67986H3.66985H3.65986H3.6499H3.63995H3.63003H3.62014H3.61026H3.60041H3.59058H3.58078H3.57099H3.56123H3.55149H3.54178H3.53209H3.52242H3.51277H3.50315H3.49355H3.48397H3.47442H3.46489H3.45538H3.4459H3.43644H3.427H3.41758H3.40819H3.39882H3.38948H3.38016H3.37086H3.36158H3.35233H3.3431H3.3339H3.32472H3.31556H3.30643H3.29732H3.28823H3.27917H3.27013H3.26111H3.25212H3.24315H3.23421H3.22529H3.21639H3.20751H3.19867H3.18984H3.18104H3.17226H3.16351H3.15478H3.14607H3.13739H3.12873H3.1201H3.11149H3.10291H3.09435H3.08581H3.0773H3.06881H3.06034H3.0519H3.04349H3.0351H3.02673H3.01839H3.01007H3.00178H2.99351H2.98527H2.97705H2.96885H2.96068H2.95254H2.94442H2.93632H2.92825H2.9202H2.91218H2.90418H2.89621H2.88826H2.88034H2.87244H2.86457H2.85672H2.8489H2.8411H2.83333H2.82558H2.81786H2.81016H2.80249H2.79484H2.78722H2.77963H2.77205H2.76451H2.75699H2.74949H2.74202H2.73458H2.72716H2.71976H2.7124H2.70505H2.69773H2.69044H2.68318H2.67594H2.66872H2.66153H2.65437H2.64723H2.64012H2.63303H2.62597H2.61894H2.61193H2.60494H2.59799H2.59105H2.58415H2.57727H2.57042H2.56359H2.55679H2.55001H2.54326H2.53654H2.52984H2.52317H2.51653H2.50991H2.50332H2.49675H2.49021H2.4837H2.47721H2.47075H2.46432H2.45791H2.45153H2.44518H2.43885H2.43255H2.42627H2.42003H2.4138H2.40761H2.40144H2.3953H2.38919H2.3831H2.37704H2.371H2.36499H2.35901H2.35306H2.34713H2.34123H2.33536H2.32952H2.3237H2.31791H2.31214H2.3064H2.30069H2.29501H2.28936H2.28373H2.27813H2.27255H2.267H2.26149H2.25599H2.25053H2.24509H2.23968H2.2343H2.22894H2.22362H2.21832H2.21305H2.2078H2.20258H2.19739H2.19223H2.1871H2.18199H2.17691H2.17186H2.16684H2.16185H2.15688H2.15194H2.14703H2.14214H2.13729H2.13246H2.12766H2.12289H2.11815H2.11343H2.10875H2.10409H2.09946H2.09485H2.09028H2.08573H2.08122H2.07673H2.07227H2.06783H2.06343H2.05905H2.05471H2.05039H2.0461H2.04184H2.0376H2.0334H2.02922H2.02507H2.02096H2.01687H2.0128H2.00877H2.00477H2.00079H1.99685H1.99293H1.98904H1.98518H1.98135H1.97755H1.97378H1.97003H1.96632H1.96263H1.95898H1.95535H1.95175H1.94818H1.94464H1.94113H1.93765H1.9342H1.93078H1.92738H1.92402H1.92068H1.91738H1.9141H1.91086H1.90764H1.90445H1.90129H1.89817H1.89507H1.892H1.88896H1.88595H1.88297H1.88002H1.8771H1.87421H1.87135H1.86852H1.86572H1.86294H1.8602H1.85749H1.85481H1.85216H1.84954H1.84695H1.84439H1.84185H1.83935H1.83688H1.83444H1.83203H1.82965H1.8273H1.82498H1.82269H1.82043H1.8182H1.81601H1.81384H1.8117H1.80959H1.80752H1.80547H1.80346H1.80147H1.79952H1.79759H1.7957H1.79384H1.79201H1.79021H1.78844H1.7867H1.78499H1.78331H1.78167H1.78005H1.77847H1.77691H1.77539H1.68126L1.59858 3.74118C1.51471 3.78679 1.44449 3.85403 1.39529 3.93603L1.71263 4.12643L1.39529 3.93603C1.34615 4.01793 1.3198 4.1115 1.31902 4.20707H1.31901V4.21009V9.65134V10.0214H1.68909H33.5241H33.8942V9.65134L33.8942 4.21009L33.8941 4.20727C33.8935 4.1268 33.8747 4.04769 33.8392 3.97577L33.8392 3.97572C33.8037 3.90375 33.7523 3.84066 33.6889 3.79125L33.5886 3.71311H33.4615H33.4605H33.4595H33.4586H33.4576H33.4565H33.4555H33.4545H33.4534H33.4523H33.4512H33.4501H33.4489H33.4478H33.4466H33.4454H33.4442H33.443H33.4418H33.4405H33.4392H33.438H33.4366H33.4353H33.434H33.4326H33.4313H33.4299H33.4285H33.4271H33.4256H33.4242H33.4227H33.4212H33.4197H33.4182H33.4166H33.4151H33.4135H33.4119H33.4103H33.4087H33.4071H33.4054H33.4037H33.4021H33.4003H33.3986H33.3969H33.3951H33.3934H33.3916H33.3898H33.388H33.3861H33.3843H33.3824H33.3805H33.3786H33.3767H33.3748H33.3728H33.3709H33.3689H33.3669H33.3649H33.3628H33.3608H33.3587H33.3566H33.3545H33.3524H33.3503H33.3482H33.346H33.3438H33.3416H33.3394H33.3372H33.335H33.3327H33.3304H33.3281H33.3258H33.3235H33.3212H33.3188H33.3164H33.3141H33.3117H33.3092H33.3068H33.3044H33.3019H33.2994H33.2969H33.2944H33.2919H33.2893H33.2868H33.2842H33.2816H33.279H33.2763H33.2737H33.271H33.2684H33.2657H33.263H33.2603H33.2575H33.2548H33.252H33.2492H33.2464H33.2436H33.2408H33.2379H33.2351H33.2322H33.2293H33.2264H33.2235H33.2205H33.2176H33.2146H33.2116H33.2086H33.2056H33.2026H33.1995H33.1964H33.1934H33.1903H33.1871H33.184H33.1809H33.1777H33.1745H33.1714H33.1681H33.1649H33.1617H33.1584H33.1552H33.1519H33.1486H33.1453H33.142H33.1386H33.1352H33.1319H33.1285H33.1251H33.1217H33.1182H33.1148H33.1113H33.1078H33.1043H33.1008H33.0973H33.0937H33.0902H33.0866H33.083H33.0794H33.0758H33.0722H33.0685H33.0649H33.0612H33.0575H33.0538H33.05H33.0463H33.0425H33.0388H33.035H33.0312H33.0274H33.0235H33.0197H33.0158H33.012H33.0081H33.0042H33.0003H32.9963H32.9924H32.9884H32.9844H32.9804H32.9764H32.9724H32.9683H32.9643H32.9602H32.9561H32.952H32.9479H32.9438H32.9397H32.9355H32.9313H32.9271H32.9229H32.9187H32.9145H32.9102H32.906H32.9017H32.8974H32.8931H32.8888H32.8845H32.8801H32.8757H32.8714H32.867H32.8626H32.8581H32.8537H32.8492H32.8448H32.8403H32.8358H32.8313H32.8268H32.8222H32.8177H32.8131H32.8085H32.8039H32.7993H32.7947H32.7901H32.7854H32.7807H32.776H32.7713H32.7666H32.7619H32.7572H32.7524H32.7476H32.7429H32.7381H32.7332H32.7284H32.7236H32.7187H32.7139H32.709H32.7041H32.6992H32.6942H32.6893H32.6843H32.6794H32.6744H32.6694H32.6644H32.6593H32.6543H32.6493H32.6442H32.6391H32.634H32.6289H32.6238H32.6186H32.6135H32.6083H32.6031H32.5979H32.5927H32.5875H32.5823H32.577H32.5718H32.5665H32.5612H32.5559H32.5506H32.5452H32.5399H32.5345H32.5291H32.5237H32.5183H32.5129H32.5075H32.502H32.4966H32.4911H32.4856H32.4801H32.4746H32.4691H32.4635H32.458H32.4524H32.4468H32.4412H32.4356H32.43H32.4244H32.4187H32.413H32.4074H32.4017H32.396H32.3903H32.3845H32.3788H32.373H32.3672H32.3615H32.3556H32.3498H32.344H32.3382H32.3323H32.3264H32.3206H32.3147H32.3088H32.3028H32.2969H32.291H32.285H32.279H32.273H32.267H32.261H32.255H32.2489H32.2429H32.2368H32.2307H32.2246H32.2185H32.2124H32.2063H32.2001H32.194H32.1878H32.1816H32.1754H32.1692H32.1629H32.1567H32.1504H32.1442H32.1379H32.1316H32.1253H32.119H32.1126H32.1063H32.0999H32.0936H32.0872H32.0808H32.0744H32.0679H32.0615H32.0551H32.0486H32.0421H32.0356H32.0291H32.0226H32.0161H32.0095H32.003H31.9964H31.9898H31.9832H31.9766H31.97H31.9634H31.9567H31.9501H31.9434H31.9367H31.93H31.9233H31.9166H31.9099H31.9031H31.8964H31.8896H31.8828H31.876H31.8692H31.8624H31.8555H31.8487H31.8418H31.8349H31.8281H31.8212H31.8143H31.8073H31.8004H31.7934H31.7865H31.7795H31.7725H31.7655H31.7585H31.7515H31.7444H31.7374H31.7303H31.7233H31.7162H31.7091H31.702H31.6948H31.6877H31.6805H31.6734H31.6662H31.659H31.6518H31.6446H31.6374H31.6301H31.6229H31.6156H31.6084H31.6011H31.5938H31.5865H31.5791H31.5718H31.5645H31.5571H31.5497H31.5424H31.535H31.5275H31.5201H31.5127H31.5053H31.4978H31.4903H31.4828H31.4754H31.4678H31.4603H31.4528H31.4453H31.4377H31.4301H31.4226H31.415H31.4074H31.3998H31.3921H31.3845H31.3769H31.3692H31.3659V2.77848H33.3565C33.7371 2.77848 34.1021 2.92967 34.3713 3.19878C34.6404 3.4679 34.7916 3.83291 34.7916 4.2135V17.3049H34.7914L34.7917 17.3142C34.8086 17.9899 34.822 18.6645 34.8271 19.3384L34.827 19.3384L34.8272 19.3446C34.8343 19.6359 34.8674 19.9258 34.9261 20.2112L35.0638 20.1829L34.9365 20.2507L34.9376 20.2541ZM1.32014 10.9425V11.3126V29.6636C1.32014 29.8066 1.37699 29.9438 1.47809 30.0449C1.57919 30.146 1.71635 30.2029 1.85944 30.2029L22.3867 30.2017L23.1201 30.2017L22.6844 29.6118C21.598 28.1409 21.0708 26.3313 21.1972 24.5071C21.3237 22.6829 22.0955 20.9634 23.3744 19.6564C24.6532 18.3495 26.3557 17.5406 28.1767 17.3746C29.9977 17.2086 31.8183 17.6965 33.3124 18.7507L33.8958 19.1624V18.4483V11.3126V10.9425H33.5258H1.69021H1.32014Z" fill="#C34142" stroke="#DB002A" stroke-width="0.740148"/>
<path d="M9.67142 5.40747C9.59334 5.43956 9.5097 5.45593 9.42528 5.45565C9.25562 5.45508 9.0931 5.38731 8.9733 5.26718C8.85355 5.14709 8.78624 4.98446 8.78609 4.81487L8.78609 4.81467L8.78609 0.992951C8.79102 0.826798 8.86022 0.668969 8.97921 0.552754C9.09912 0.435639 9.26009 0.370074 9.42771 0.370074C9.59534 0.370074 9.7563 0.435639 9.87622 0.552754C9.99521 0.668966 10.0644 0.826794 10.0693 0.992952V4.81465C10.0692 4.89901 10.0525 4.98252 10.0201 5.06039C9.98764 5.1383 9.94016 5.20906 9.88031 5.26864C9.82047 5.32821 9.74948 5.37539 9.67142 5.40747Z" fill="#C34142" stroke="#DB002A" stroke-width="0.740148"/>
<path d="M28.0431 5.26781C27.9229 5.38799 27.7599 5.45555 27.59 5.45565C27.4198 5.45574 27.2565 5.38825 27.1361 5.268C27.0157 5.1478 26.948 4.98476 26.9477 4.81465V0.992951C26.9526 0.826798 27.0218 0.668969 27.1408 0.552754C27.2607 0.435639 27.4217 0.370074 27.5893 0.370074C27.757 0.370074 27.9179 0.435639 28.0378 0.552754C28.1568 0.668966 28.226 0.826794 28.231 0.992952L28.231 4.81467C28.231 4.81472 28.231 4.81478 28.231 4.81484C28.231 4.81485 28.231 4.81486 28.231 4.81487C28.2308 4.98477 28.1632 5.14767 28.0431 5.26781Z" fill="#C34142" stroke="#DB002A" stroke-width="0.740148"/>
<path d="M28.4036 15.3137L28.6437 15.0363L28.4036 15.3137C28.5129 15.4082 28.5816 15.5409 28.5961 15.6843V16.1185C27.3385 16.1708 26.1048 16.4891 24.9769 17.0539C23.8104 17.638 22.7873 18.4707 21.979 19.4922C21.9177 19.4653 21.8615 19.427 21.8136 19.3787C21.725 19.2893 21.6707 19.1716 21.6601 19.0464V15.6844C21.6747 15.5408 21.7436 15.408 21.8531 15.3134C21.9658 15.216 22.1123 15.167 22.2609 15.177L22.2732 15.1778H22.2857H27.9723H27.9844L27.9966 15.177C28.145 15.1673 28.2912 15.2163 28.4036 15.3137Z" fill="#C34142" stroke="#DB002A" stroke-width="0.740148"/>
<path d="M29.9048 24.5308L30.0106 24.7209H30.2281H33.1101C33.1182 24.7209 33.1261 24.7242 33.1319 24.73C33.1377 24.7357 33.1409 24.7434 33.141 24.7515L33.141 25.3408L33.1411 25.3424C33.1411 25.3466 33.1403 25.3507 33.1387 25.3545C33.1371 25.3584 33.1348 25.3618 33.1319 25.3648L33.3943 25.6258L33.1319 25.3648C33.129 25.3677 33.1255 25.37 33.1216 25.3717C33.1178 25.3733 33.1137 25.3741 33.1097 25.3741C33.1096 25.3741 33.1096 25.3741 33.1095 25.3741L30.2281 25.3741H30.0086L29.9034 25.5667C29.8235 25.7129 29.7106 25.8385 29.5737 25.9335C29.4369 26.0284 29.2797 26.0902 29.1148 26.1139C28.9499 26.1376 28.7817 26.1225 28.6237 26.0699L28.5068 26.421L28.6237 26.0699C28.4656 26.0173 28.322 25.9285 28.2042 25.8107L27.9468 26.0681L28.2042 25.8107C28.0864 25.6929 27.9976 25.5493 27.945 25.3912C27.8924 25.2331 27.8773 25.065 27.901 24.9001C27.9247 24.7352 27.9865 24.578 28.0814 24.4411C28.1764 24.3043 28.302 24.1914 28.4482 24.1115L28.6408 24.0063V23.7868L28.6408 20.0869L28.6408 20.0864C28.6408 20.0777 28.6442 20.0694 28.6503 20.0633C28.6563 20.0573 28.6644 20.0538 28.673 20.0537H29.2605C29.2693 20.0538 29.2778 20.0573 29.2841 20.0636L29.5265 19.8215L29.2841 20.0636C29.2904 20.0699 29.2939 20.0784 29.294 20.0873V23.7868V24.0043L29.484 24.1101C29.6607 24.2085 29.8064 24.3542 29.9048 24.5308Z" fill="#C34142" stroke="#DB002A" stroke-width="0.740148"/>
</svg>
