<svg width="43" height="40" viewBox="0 0 43 40" fill="none" xmlns="http://www.w3.org/2000/svg">
<path d="M27.4004 32.5074L22.4623 37.1688V18.2873C22.4623 17.8621 22.1191 17.5189 21.6939 17.5189C21.2688 17.5189 20.9256 17.8621 20.9256 18.2873V37.1432L16.1258 32.5125C15.8184 32.2205 15.3369 32.2256 15.0398 32.533C14.7427 32.8403 14.753 33.327 15.0603 33.619L21.1612 39.5047C21.3098 39.6481 21.5044 39.7199 21.6939 39.7199C21.8835 39.7199 22.073 39.6481 22.2216 39.5098L28.4556 33.6241C28.763 33.3321 28.7784 32.8455 28.4864 32.5381C28.1944 32.2308 27.7078 32.2154 27.4004 32.5074Z" fill="#DB002A"/>
<path d="M34.3618 10.6497C33.7983 8.44189 31.0526 0.153675 21.5248 0C21.4326 0 21.3404 0 21.2481 0C11.6178 0 9.08732 8.37017 8.58532 10.6138C3.50379 11.7152 0 15.557 0 20.1007C0 25.8379 4.28242 29.2597 11.4488 29.2597H16.1564C16.5815 29.2597 16.9248 28.9165 16.9248 28.4914C16.9248 28.0662 16.5815 27.723 16.1564 27.723H11.4488C5.05591 27.723 1.53675 25.0183 1.53675 20.1007C1.53675 16.1615 4.75881 12.837 9.37418 12.0225C9.70202 11.9662 9.95303 11.7049 9.99913 11.372C10.0555 10.9673 11.5051 1.53163 21.2481 1.53163C21.3301 1.53163 21.4172 1.53163 21.4992 1.53163C31.1448 1.69043 32.8967 11.0441 32.9684 11.4437C33.0248 11.7664 33.2809 12.0174 33.6036 12.0737C38.1627 12.8063 41.5435 16.182 41.4616 19.9317C41.354 25.0286 37.8143 27.723 31.237 27.723H26.5602C26.135 27.723 25.7918 28.0662 25.7918 28.4914C25.7918 28.9165 26.135 29.2597 26.5602 29.2597H31.237C41.2976 29.2597 42.9266 23.4355 42.9983 19.9624C43.0905 15.598 39.4126 11.6742 34.3618 10.6497Z" fill="#DB002A"/>
</svg>
