<svg width="84" height="78" viewBox="0 0 84 78" fill="none" xmlns="http://www.w3.org/2000/svg">
<path d="M53.49 63.46L43.85 72.56V35.7C43.85 34.87 43.18 34.2 42.35 34.2C41.52 34.2 40.85 34.87 40.85 35.7V72.51L31.48 63.47C30.88 62.9 29.94 62.91 29.36 63.51C28.78 64.11 28.8 65.06 29.4 65.63L41.31 77.12C41.6 77.4 41.98 77.54 42.35 77.54C42.72 77.54 43.09 77.4 43.38 77.13L55.55 65.64C56.15 65.07 56.18 64.12 55.61 63.52C55.04 62.92 54.09 62.89 53.49 63.46Z" fill="black"/>
<path d="M67.08 20.79C65.98 16.48 60.62 0.3 42.02 0C41.84 0 41.66 0 41.48 0C22.68 0 17.74 16.34 16.76 20.72C6.84 22.87 0 30.37 0 39.24C0 50.44 8.36001 57.12 22.35 57.12H31.54C32.37 57.12 33.04 56.45 33.04 55.62C33.04 54.79 32.37 54.12 31.54 54.12H22.35C9.87001 54.12 3 48.84 3 39.24C3 31.55 9.29 25.06 18.3 23.47C18.94 23.36 19.43 22.85 19.52 22.2C19.63 21.41 22.46 2.99 41.48 2.99C41.64 2.99 41.81 2.99 41.97 2.99C60.8 3.3 64.22 21.56 64.36 22.34C64.47 22.97 64.97 23.46 65.6 23.57C74.5 25 81.1 31.59 80.94 38.91C80.73 48.86 73.82 54.12 60.98 54.12H51.85C51.02 54.12 50.35 54.79 50.35 55.62C50.35 56.45 51.02 57.12 51.85 57.12H60.98C80.62 57.12 83.8 45.75 83.94 38.97C84.12 30.45 76.94 22.79 67.08 20.79Z" fill="black"/>
</svg>
