<svg width="97" height="86" viewBox="0 0 97 86" fill="none" xmlns="http://www.w3.org/2000/svg">
<path d="M95.06 19.1806C92.75 16.7206 89.25 17.8706 87.55 18.9406C87.47 18.9906 87.4 19.0506 87.33 19.1106L70.74 34.4106C70.32 31.6706 68.66 28.9006 66.29 27.4606C64.61 26.4506 60.12 24.7206 54.58 30.5806C51.79 33.5406 49.07 35.0406 46.51 35.0406C46.51 35.0406 46.51 35.0406 46.5 35.0406C43.82 35.0406 42.2 33.3706 42.14 33.3106C42.08 33.2506 42.01 33.1806 41.94 33.1306C41.86 33.0706 40.08 31.6706 40.13 29.1306C40.17 26.8206 41.73 23.0006 48.93 17.8506C53.18 14.8106 54.93 11.7706 54.13 8.82057C52.5 2.80057 40.76 0.430567 37.94 0.160567C28.3 -0.749433 19.18 2.23057 12.25 8.54057C4.46 15.6306 0 26.2606 0 37.7106C0 59.0306 10.85 71.5306 32.23 74.8906C31.91 76.6206 31.88 77.9006 31.88 78.0606V78.0806C31.88 83.1806 33.75 84.7906 34.12 85.0606C34.29 85.1806 34.48 85.2706 34.68 85.3106C35.95 85.5806 37.2 85.7106 38.43 85.7106C41.8 85.7106 44.97 84.7006 47.58 82.7506C50.52 80.5606 52.5 77.3606 52.73 74.4106C52.78 73.7706 52.77 73.0406 52.68 72.2706C54.29 71.7906 56.89 70.4706 61.14 67.3006C61.15 67.3006 61.16 67.3006 61.17 67.3006C62.15 67.3006 63.91 67.0806 65.12 65.6906C66.19 64.4506 66.48 62.6806 65.99 60.4206L85.9 37.5206C86.44 36.9006 86.38 35.9506 85.75 35.4006C85.12 34.8606 84.18 34.9206 83.63 35.5506L64.3 57.7806L57.61 50.5706L89.23 21.4106C89.72 21.1406 91.81 20.1006 92.86 21.2206C94.55 23.0206 93.11 24.9906 92.84 25.3106L86.37 32.4606C85.81 33.0706 85.86 34.0206 86.48 34.5806C87.09 35.1306 88.04 35.0906 88.6 34.4706L95.1 27.2806C96.34 25.8106 97.92 22.2206 95.04 19.1606L95.06 19.1806ZM3 37.7106C3 27.1006 7.11 17.2806 14.27 10.7506C20.65 4.94057 28.74 2.31057 37.66 3.14057C41 3.45057 50.24 5.91057 51.24 9.59057C51.78 11.6106 49.34 13.8606 47.19 15.4006C40.55 20.1406 37.17 24.7706 37.13 29.1506C37.1 32.8206 39.47 34.9806 40.03 35.4406C40.53 35.9306 42.83 38.0106 46.44 38.0306C46.46 38.0306 46.48 38.0306 46.5 38.0306C49.92 38.0306 53.38 36.2106 56.77 32.6306C58.81 30.4706 61.85 28.2606 64.75 30.0206C67.19 31.5006 68.33 35.0606 67.66 37.0306C67.63 37.1306 67.6 37.2206 67.59 37.3206L54.96 48.9706C52.75 48.9406 51.1 49.5406 50.06 50.8006C48.9 52.2006 48.91 53.9106 49.03 54.8606C47.62 57.1206 45.16 61.2406 44.3 63.8306C43.45 63.7806 42.52 63.8306 41.48 64.0006C36.57 64.8206 34.17 68.5506 33 71.9706C12.83 68.9106 3.00999 57.7006 3.00999 37.7106H3ZM49.75 74.1806C49.62 75.7606 48.51 78.3306 45.79 80.3506C43.83 81.8106 40.52 83.3406 35.77 82.4706C35.47 82.0206 34.87 80.7806 34.87 78.1006C34.87 77.7606 35.22 68.0906 41.95 66.9606C44.42 66.5506 46.33 66.9606 47.66 68.1806C49.3 69.6806 49.89 72.3406 49.74 74.1706L49.75 74.1806ZM49.7 65.9706C49.1 65.4206 48.28 64.8606 47.22 64.4506C47.79 62.9806 49.27 60.2306 50.84 57.6106L58.42 65.5806C55.82 67.4306 53.23 68.9506 51.96 69.3906C51.47 68.1406 50.75 66.9406 49.69 65.9706H49.7ZM62.86 63.7306C62.48 64.1706 61.8 64.2806 61.35 64.3006L51.99 54.4606C51.94 54.0206 51.93 53.2306 52.36 52.7106C52.86 52.1006 53.89 51.9606 54.83 51.9706L63 60.7706C63.35 62.1606 63.31 63.2106 62.87 63.7206L62.86 63.7306Z" fill="#231F20"/>
<path d="M28.7801 51.4106C24.9501 51.4106 21.8401 54.5206 21.8401 58.3506C21.8401 62.1806 24.9501 65.2906 28.7801 65.2906C32.6101 65.2906 35.7201 62.1806 35.7201 58.3506C35.7201 54.5206 32.6101 51.4106 28.7801 51.4106ZM28.7801 62.2806C26.6101 62.2806 24.8401 60.5106 24.8401 58.3406C24.8401 56.1706 26.6101 54.4006 28.7801 54.4006C30.9501 54.4006 32.7201 56.1706 32.7201 58.3406C32.7201 60.5106 30.9501 62.2806 28.7801 62.2806Z" fill="#231F20"/>
<path d="M28.7799 22.3706C32.2999 22.3706 35.1599 19.5106 35.1599 15.9906C35.1599 12.4706 32.2999 9.6106 28.7799 9.6106C25.2599 9.6106 22.3999 12.4706 22.3999 15.9906C22.3999 19.5106 25.2599 22.3706 28.7799 22.3706ZM28.7799 12.6006C30.6499 12.6006 32.1599 14.1206 32.1599 15.9806C32.1599 17.8406 30.6399 19.3606 28.7799 19.3606C26.9199 19.3606 25.3999 17.8406 25.3999 15.9806C25.3999 14.1206 26.9199 12.6006 28.7799 12.6006Z" fill="#231F20"/>
<path d="M16.8699 34.8006C20.5899 34.8006 23.6099 31.7706 23.6099 28.0606C23.6099 24.3506 20.5899 21.3206 16.8699 21.3206C13.1499 21.3206 10.1299 24.3406 10.1299 28.0606C10.1299 31.7806 13.1499 34.8006 16.8699 34.8006ZM16.8699 24.3106C18.9299 24.3106 20.6099 25.9906 20.6099 28.0506C20.6099 30.1106 18.9299 31.7906 16.8699 31.7906C14.8099 31.7906 13.1299 30.1106 13.1299 28.0506C13.1299 25.9906 14.8099 24.3106 16.8699 24.3106Z" fill="#231F20"/>
<path d="M15.5801 39.1106C11.7201 39.1106 8.58008 42.2506 8.58008 46.1106C8.58008 49.9706 11.7201 53.1106 15.5801 53.1106C19.4401 53.1106 22.5801 49.9706 22.5801 46.1106C22.5801 42.2506 19.4401 39.1106 15.5801 39.1106ZM15.5801 50.1106C13.3701 50.1106 11.5801 48.3206 11.5801 46.1106C11.5801 43.9006 13.3701 42.1106 15.5801 42.1106C17.7901 42.1106 19.5801 43.9006 19.5801 46.1106C19.5801 48.3206 17.7901 50.1106 15.5801 50.1106Z" fill="#231F20"/>
</svg>
