<svg width="71" height="82" viewBox="0 0 71 82" fill="none" xmlns="http://www.w3.org/2000/svg">
<path d="M69.9699 14.8039C69.8899 14.2039 69.4499 13.7139 68.8699 13.5639C63.3998 12.1139 57.9698 10.3039 52.7198 8.18392C47.0898 5.90392 41.5598 3.21392 36.2799 0.193922C35.8298 -0.0560777 35.2898 -0.0660779 34.8298 0.173922L32.7299 1.29392C28.3099 3.66392 23.7398 6.11392 18.3699 8.26392C13.5399 10.2039 8.52985 11.6539 4.11985 12.9339L1.92985 13.5739C1.38985 13.7339 0.97985 14.1839 0.87985 14.7439C0.77985 15.2739 -1.44015 27.8139 1.57985 42.3239C5.60985 61.7039 17.1899 75.1039 35.0699 81.0839C35.2199 81.1339 35.3799 81.1639 35.5499 81.1639C35.6498 81.1639 35.7499 81.1639 35.8498 81.1339C36.2898 81.0439 46.6099 78.8339 56.0499 69.4939C64.7099 60.9239 74.1599 44.4739 69.9899 14.8039H69.9699ZM54.0299 67.2539C46.1999 75.0639 37.4898 77.6239 35.5998 78.1039C18.8198 72.3539 8.35985 60.1439 4.51985 41.8039C2.04985 30.0139 3.23985 19.3039 3.67985 16.1839L4.94985 15.8139C9.42985 14.5139 14.5099 13.0439 19.4799 11.0439C24.9999 8.82392 29.6499 6.33392 34.1399 3.93392L35.5098 3.20392C40.6798 6.12392 46.0898 8.73392 51.5898 10.9639C56.6398 13.0139 61.8699 14.7739 67.1299 16.2039C70.0199 38.1839 65.4998 55.8239 54.0299 67.2539Z" fill="#231F20"/>
<path d="M46.3599 28.0639L31.2799 42.2539L25.9399 37.0739C23.9899 35.1839 20.8799 35.2339 18.9899 37.1839C17.0999 39.1339 17.1499 42.2439 19.0999 44.1339L27.8199 52.5839C28.7699 53.5039 30.0099 53.9739 31.2399 53.9739C32.4699 53.9739 33.6599 53.5339 34.6099 52.6339L53.1099 35.2239C55.0899 33.3639 55.1799 30.2539 53.3199 28.2739C51.4599 26.2939 48.3499 26.2039 46.3699 28.0639H46.3599ZM51.4399 33.4639L32.9399 50.8739C32.4599 51.3239 31.8399 51.5539 31.2299 51.5539C30.6199 51.5539 29.9699 51.3139 29.4899 50.8439L20.7699 42.3939C19.7799 41.4339 19.7499 39.8539 20.7199 38.8539C21.6799 37.8639 23.2599 37.8439 24.2599 38.8039L31.2599 45.5939L48.0199 29.8239C49.0299 28.8739 50.6099 28.9239 51.5499 29.9339C52.4999 30.9439 52.4499 32.5239 51.4399 33.4639Z" fill="#231F20"/>
</svg>
