<svg width="40" height="42" viewBox="0 0 40 42" fill="none" xmlns="http://www.w3.org/2000/svg">
<path d="M6.85805 1.0876C7.37147 1.0876 7.78767 1.50381 7.78767 2.01723V40.3584C7.78767 40.8718 7.37147 41.288 6.85805 41.288C6.34463 41.288 5.92842 40.8718 5.92842 40.3584V2.01723C5.92842 1.50381 6.34463 1.0876 6.85805 1.0876Z" fill="#C34142" stroke="#DB002A" stroke-width="0.740148"/>
<path d="M20.5048 1.0876C21.0182 1.0876 21.4344 1.50381 21.4344 2.01723V40.3584C21.4344 40.8718 21.0182 41.288 20.5048 41.288C19.9914 41.288 19.5752 40.8718 19.5752 40.3584V2.01723C19.5752 1.50381 19.9914 1.0876 20.5048 1.0876Z" fill="#C34142" stroke="#DB002A" stroke-width="0.740148"/>
<path d="M34.1518 1.0876C34.6652 1.0876 35.0814 1.50381 35.0814 2.01723V40.3584C35.0814 40.8718 34.6652 41.288 34.1518 41.288C33.6383 41.288 33.2221 40.8718 33.2221 40.3584V2.01723C33.2221 1.50381 33.6383 1.0876 34.1518 1.0876Z" fill="#C34142" stroke="#DB002A" stroke-width="0.740148"/>
<path d="M12.3363 16.9634C12.3363 19.9891 9.88341 22.442 6.85768 22.442C3.83195 22.442 1.37911 19.9891 1.37911 16.9634C1.37911 13.9377 3.83195 11.4848 6.85768 11.4848C9.88341 11.4848 12.3363 13.9377 12.3363 16.9634Z" fill="white" stroke="#DB002A" stroke-width="0.740148"/>
<path d="M6.85752 21.8372C9.54928 21.8372 11.7314 19.6551 11.7314 16.9634C11.7314 14.2716 9.54928 12.0895 6.85752 12.0895C4.16575 12.0895 1.98364 14.2716 1.98364 16.9634C1.98364 19.6551 4.16575 21.8372 6.85752 21.8372Z" stroke="#DB002A" stroke-width="2.22045"/>
<path d="M25.9835 26.0612C25.9835 29.0869 23.5306 31.5397 20.5049 31.5397C17.4792 31.5397 15.0263 29.0869 15.0263 26.0612C15.0263 23.0354 17.4792 20.5826 20.5049 20.5826C23.5306 20.5826 25.9835 23.0354 25.9835 26.0612Z" fill="white" stroke="#DB002A" stroke-width="0.740148"/>
<path d="M20.5047 30.9351C23.1965 30.9351 25.3786 28.753 25.3786 26.0613C25.3786 23.3695 23.1965 21.1874 20.5047 21.1874C17.813 21.1874 15.6309 23.3695 15.6309 26.0613C15.6309 28.753 17.813 30.9351 20.5047 30.9351Z" stroke="#DB002A" stroke-width="2.22045"/>
<path d="M34.1515 21.4672C31.6684 21.4672 29.6477 19.4464 29.6477 16.9634C29.6477 14.4803 31.6684 12.4596 34.1515 12.4596C36.6345 12.4596 38.6553 14.4803 38.6553 16.9634C38.6553 19.4464 36.6345 21.4672 34.1515 21.4672Z" fill="white" stroke="#DB002A" stroke-width="0.740148"/>
<path d="M34.1516 12.6942C31.7973 12.6942 29.8825 14.609 29.8825 16.9634C29.8825 19.3178 31.7973 21.2326 34.1516 21.2326C36.506 21.2326 38.4208 19.3178 38.4208 16.9634C38.4208 14.609 36.506 12.6942 34.1516 12.6942ZM34.1516 11.4848C37.1774 11.4848 39.6302 13.9377 39.6302 16.9634C39.6302 19.9891 37.1774 22.442 34.1516 22.442C31.1259 22.442 28.6731 19.9891 28.6731 16.9634C28.6731 13.9377 31.1259 11.4848 34.1516 11.4848Z" fill="#C34142" stroke="#DB002A" stroke-width="0.740148"/>
</svg>
