<svg width="40" height="37" viewBox="0 0 40 37" fill="none" xmlns="http://www.w3.org/2000/svg">
<path d="M5.73287 29.9961V28.5196H18.3249V29.9961H5.73287Z" fill="#C34142" stroke="#DB002A" stroke-width="0.740148"/>
<path d="M29.4446 30.225L29.7083 30.5038L29.9774 30.2302L35.1322 24.9881L35.5267 25.3763L29.7008 31.301L27.1295 28.582L27.5315 28.2021L29.4446 30.225Z" fill="#C34142" stroke="#DB002A" stroke-width="0.740148"/>
<path d="M11.3032 16.7579V12.6178L10.9332 16.7578C10.9329 16.9378 10.8612 17.1103 10.7338 17.2375C10.6063 17.3647 10.4335 17.4362 10.2534 17.4361H10.2532H6.41199C6.2321 17.436 6.05961 17.3644 5.93241 17.2373C5.80521 17.1101 5.7337 16.9375 5.7336 16.7576L5.7336 12.6178L5.7336 12.6174C5.7335 12.5282 5.75097 12.4399 5.78501 12.3575C5.81905 12.2751 5.869 12.2002 5.932 12.1371C5.995 12.0739 6.06982 12.0239 6.15217 11.9897C6.23456 11.9555 6.32285 11.9379 6.41199 11.9378M11.3032 16.7579L10.9332 16.7574L10.9332 12.6178V12.6176C10.9332 12.5283 10.9157 12.4399 10.8815 12.3574C10.8474 12.2749 10.7973 12.1999 10.7342 12.1368C10.6711 12.0737 10.5961 12.0236 10.5136 11.9895C10.4311 11.9553 10.3427 11.9378 10.2534 11.9378L10.2532 11.9378L6.41199 11.9378M11.3032 16.7579C11.3029 17.0361 11.1921 17.3028 10.9952 17.4994C10.7983 17.6959 10.5314 17.8063 10.2532 17.8061L11.3032 16.7579ZM6.41199 11.9378L6.41178 11.5677V11.9378L6.41199 11.9378ZM6.84013 12.7498H6.46998L6.47005 13.12L6.47065 16.254L6.47072 16.624H6.84072H9.82426H10.1943V16.254V13.1199V12.7498H9.82426H6.84013Z" fill="#C34142" stroke="#DB002A" stroke-width="0.740148"/>
<path d="M18.3215 12.6174V12.6178V16.7576C18.3214 16.9375 18.2499 17.1101 18.1227 17.2373C17.9955 17.3644 17.823 17.436 17.6431 17.4361L13.8023 17.4361C13.8022 17.4361 13.8021 17.4361 13.802 17.4361C13.6222 17.4358 13.4499 17.3642 13.3227 17.2371C13.1955 17.1099 13.124 16.9375 13.1237 16.7576L13.1237 12.6178L13.1237 12.6176C13.1236 12.4375 13.1951 12.2647 13.3223 12.1372C13.4495 12.0098 13.6221 11.9381 13.8021 11.9378H17.6432C17.7323 11.9379 17.8206 11.9555 17.9029 11.9897C17.9853 12.0239 18.0601 12.0739 18.1231 12.1371C18.1861 12.2002 18.2361 12.2751 18.2701 12.3575C18.3042 12.4399 18.3216 12.5282 18.3215 12.6174ZM14.2303 12.7498H13.8601L13.8602 13.12L13.8608 16.254L13.8609 16.624H14.2309H17.2156H17.5857V16.254V13.1199V12.7498H17.2156H14.2303Z" fill="#C34142" stroke="#DB002A" stroke-width="0.740148"/>
<path d="M10.2532 25.7261H10.2534C10.4335 25.7262 10.6063 25.6548 10.7338 25.5276C10.8612 25.4004 10.9329 25.2279 10.9332 25.0479C10.9332 25.0478 10.9332 25.0476 10.9332 25.0475V20.9089C10.9332 20.9088 10.9332 20.9087 10.9332 20.9085C10.9329 20.7285 10.8612 20.556 10.7338 20.4289C10.6063 20.3016 10.4335 20.2302 10.2534 20.2303L10.2532 20.2303L6.41199 20.2303C6.23209 20.2304 6.05961 20.3019 5.93241 20.4291C5.80523 20.5563 5.73373 20.7287 5.7336 20.9086C5.7336 20.9086 5.7336 20.9086 5.7336 20.9087L10.2532 25.7261ZM10.2532 25.7261H6.41199M10.2532 25.7261H6.41199M6.41199 25.7261C6.23209 25.726 6.05961 25.6545 5.93241 25.5273C5.80521 25.4001 5.7337 25.2276 5.7336 25.0477L6.41199 25.7261ZM6.84013 21.0417H6.46998L6.47005 21.4118L6.47065 24.5447L6.47072 24.9147H6.84072H9.82426H10.1943V24.5446V21.4118V21.0417H9.82426H6.84013Z" fill="#C34142" stroke="#DB002A" stroke-width="0.740148"/>
<path d="M14.2303 21.0417H13.8601L13.8602 21.4118L13.8608 24.5447L13.8609 24.9147H14.2309H17.2156H17.5857V24.5446V21.4118V21.0417H17.2156H14.2303ZM18.1227 25.5273C17.9955 25.6545 17.823 25.726 17.6431 25.7261L13.8023 25.7261C13.8022 25.7261 13.8021 25.7261 13.802 25.7261C13.6221 25.7258 13.4497 25.6542 13.3226 25.527C13.1954 25.3997 13.1238 25.2271 13.1237 25.0472L13.1237 20.9082C13.1241 20.7285 13.1957 20.5562 13.3229 20.4291C13.45 20.3021 13.6224 20.2306 13.8021 20.2303H17.6432C17.8231 20.2304 17.9955 20.3019 18.1227 20.4291C18.2499 20.5563 18.3214 20.7288 18.3215 20.9087V25.0477C18.3214 25.2276 18.2499 25.4001 18.1227 25.5273Z" fill="#C34142" stroke="#DB002A" stroke-width="0.740148"/>
<path d="M25.712 12.6167V12.6163C25.7121 12.5271 25.6946 12.4388 25.6606 12.3564C25.6266 12.274 25.5766 12.1991 25.5136 12.136C25.4506 12.0728 25.3758 12.0228 25.2934 11.9886C25.2111 11.9544 25.1228 11.9368 25.0337 11.9367C25.0337 11.9367 25.0336 11.9367 25.0336 11.9367L25.0338 11.5667L25.712 12.6167ZM25.712 12.6167V16.7566C25.7119 16.9363 25.6405 17.1087 25.5135 17.2359C25.3865 17.363 25.2143 17.4346 25.0346 17.435C25.0346 17.435 25.0345 17.435 25.0344 17.435L21.192 17.435C21.0122 17.4349 20.8397 17.3633 20.7124 17.2361C20.5852 17.1089 20.5137 16.9364 20.5136 16.7566L20.5136 12.6167L20.5136 12.6163C20.5135 12.5271 20.531 12.4388 20.565 12.3564C20.5991 12.274 20.649 12.1991 20.712 12.136C20.775 12.0728 20.8498 12.0228 20.9322 11.9886C21.0146 11.9544 21.1029 11.9368 21.192 11.9367L25.712 12.6167ZM24.6049 16.6235H24.975V16.2535V13.1212V12.7511H24.6049H21.6208H21.2507V13.1212V16.2535V16.6235H21.6208H24.6049Z" fill="#C34142" stroke="#DB002A" stroke-width="0.740148"/>
<path d="M33.4724 16.7579V12.6178L33.1024 16.7578C33.1021 16.9378 33.0303 17.1103 32.903 17.2375C32.7755 17.3647 32.6027 17.4362 32.4226 17.4361H32.4224H28.5812C28.4013 17.436 28.2288 17.3644 28.1016 17.2373C27.9744 17.1101 27.9029 16.9376 27.9028 16.7576L27.9028 12.6178L27.9028 12.6174C27.9027 12.5282 27.9202 12.4399 27.9542 12.3575C27.9882 12.2751 28.0382 12.2002 28.1012 12.1371C28.1642 12.074 28.239 12.0239 28.3214 11.9897C28.4037 11.9555 28.492 11.9379 28.5812 11.9378M33.4724 16.7579L33.1024 16.7574L33.1024 12.6178V12.6176C33.1024 12.5283 33.0849 12.4399 33.0507 12.3574C33.0166 12.2749 32.9665 12.1999 32.9034 12.1368C32.8402 12.0737 32.7653 12.0236 32.6828 11.9895C32.6003 11.9553 32.5119 11.9378 32.4226 11.9378L32.4224 11.9378L28.5812 11.9378M33.4724 16.7579C33.4721 17.0361 33.3613 17.3028 33.1644 17.4994C32.9675 17.6959 32.7006 17.8063 32.4224 17.8061L33.4724 16.7579ZM28.5812 11.9378L28.581 11.5677V11.9378L28.5812 11.9378ZM29.0093 12.7498H28.6392L28.6392 13.12L28.6398 16.254L28.6399 16.624H29.0099H31.9935H32.3635V16.254V13.1199V12.7498H31.9935H29.0093Z" fill="#C34142" stroke="#DB002A" stroke-width="0.740148"/>
<path d="M37.303 4.8363C36.9459 4.47928 36.4617 4.2787 35.9568 4.2787H33.4302H33.0601V3.90863V1.42308M37.303 4.8363L6.35281 4.2787V3.90863V1.42308M37.303 4.8363C37.66 5.19332 37.8606 5.67756 37.8606 6.18246V19.9888L37.303 4.8363ZM33.0601 1.42308C33.06 1.04561 32.9099 0.683643 32.6429 0.416785C32.376 0.149927 32.0139 4.44315e-06 31.6365 4.47611e-06H27.1484C26.7709 4.44315e-06 26.4089 0.149927 26.1419 0.416785C25.8749 0.683643 25.7249 1.04561 25.7247 1.42308M33.0601 1.42308H32.69M33.0601 1.42308L12.2579 0.370079M25.7247 1.42308V3.90863V4.2787H25.3546H14.0648H13.6948V3.90863V1.42308M25.7247 1.42308H26.0948M25.7247 1.42308L26.0948 1.42323V4.2787V4.64878H25.7247H13.6948H13.3247V4.2787V1.42428M13.6948 1.42308C13.6927 1.09548 13.5773 0.778676 13.3681 0.526517C13.2656 0.35152 13.1151 0.209595 12.9343 0.117544C12.7536 0.0254928 12.5503 -0.0128166 12.3485 0.00715779C12.3351 0.00715779 12.3221 0.00536946 12.3092 0.00358113C12.2962 0.0017928 12.2833 4.47611e-06 12.2699 4.47611e-06H7.78063C7.5934 -0.00046485 7.4079 0.0359774 7.23477 0.107268C7.06164 0.178558 6.90427 0.283303 6.77165 0.415478C6.63903 0.547652 6.53378 0.704681 6.46191 0.877574C6.39004 1.05047 6.35297 1.23584 6.35281 1.42308M13.6948 1.42308L13.3247 1.4254C13.3247 1.42503 13.3247 1.42466 13.3247 1.42428M13.6948 1.42308H13.3247V1.42428M6.35281 1.42308L6.72289 1.42339M6.35281 1.42308H6.72289V1.42339M6.72289 1.42339C6.723 1.2848 6.75044 1.14759 6.80364 1.01962C6.85683 0.891653 6.93474 0.775426 7.03289 0.677596C7.13107 0.579752 7.24755 0.502226 7.37568 0.449467C7.50381 0.396706 7.6411 0.36973 7.7797 0.370079H7.78063H12.2579M6.72289 1.42339V4.2787V4.64878H6.35281H2.73628C2.32952 4.64878 1.93942 4.81036 1.6518 5.09798C1.36418 5.3856 1.20259 5.7757 1.20259 6.18246V33.0254C1.20259 33.4322 1.36417 33.8222 1.6518 34.1099C1.93942 34.3975 2.32952 34.5591 2.73628 34.5591H25.7122V34.1742L26.3073 34.63C27.8752 35.8307 29.8262 36.4203 31.7967 36.2888C33.7672 36.1573 35.6226 35.3138 37.017 33.9153C38.4115 32.5169 39.2498 30.6591 39.3757 28.6883C39.5016 26.7174 38.9064 24.768 37.7012 23.2036L37.6243 23.1037V23.0129C37.5664 22.7248 37.5341 22.4321 37.528 22.1382L37.5279 22.1333C37.5226 21.4224 37.5084 20.7109 37.4906 19.9981L37.4904 19.9888H37.4905V6.18246C37.4905 5.77571 37.3289 5.3856 37.0413 5.09798C36.7537 4.81036 36.3636 4.64878 35.9568 4.64878H33.0601H32.69V4.2787V1.42323C32.69 1.42318 32.69 1.42313 32.69 1.42308M12.2579 0.370079C12.2581 0.370109 12.2583 0.370139 12.2585 0.370171L12.2596 0.370319C12.2655 0.37114 12.2777 0.372823 12.2908 0.374176C12.3057 0.3757 12.3255 0.377232 12.3485 0.377232H12.3667L12.3849 0.375433C12.5163 0.362427 12.6487 0.387371 12.7664 0.447308C12.8841 0.507248 12.9821 0.599659 13.0488 0.713595L13.0641 0.739589L13.0833 0.762777C13.2376 0.948852 13.3229 1.18256 13.3247 1.42428M12.2579 0.370079H12.2699C12.2603 0.370079 12.2537 0.369441 12.2519 0.369258L12.2515 0.369212C12.2515 0.369215 12.2528 0.369385 12.2579 0.370079ZM12.2579 0.370079L26.0948 1.42308M32.69 1.42308C32.6899 1.14378 32.5788 0.875974 32.3813 0.678521C32.1837 0.481027 31.9158 0.370079 31.6365 0.370079H27.1484C26.869 0.370079 26.6011 0.481026 26.4035 0.678522C26.206 0.875973 26.0949 1.14378 26.0948 1.42308M32.69 1.42308H26.0948M2.18772 6.17562L2.18779 6.17562C2.18956 6.07946 2.21679 5.98543 2.26675 5.90315C2.3167 5.82087 2.38756 5.75335 2.47206 5.70741L2.55472 5.66246H2.64882H6.35639H6.72646V6.03254V7.8863V7.88723C6.72611 8.02611 6.75321 8.16369 6.80619 8.29206C6.85919 8.42045 6.93702 8.53711 7.03522 8.6353C7.13341 8.7335 7.25005 8.81132 7.37843 8.86431C7.50682 8.9173 7.6444 8.9444 7.78327 8.94405L7.7842 8.94405L12.2705 8.94405H12.2714C12.4103 8.9444 12.5479 8.9173 12.6763 8.86431C12.8047 8.81132 12.9213 8.7335 13.0195 8.6353C13.1177 8.53711 13.1955 8.42045 13.2485 8.29206C13.3015 8.16369 13.3286 8.02611 13.3283 7.88723L13.3283 7.8863L13.3283 6.02716V5.65709H13.6983H25.7301H26.1001V6.02716V7.8863V7.88722C26.0998 8.02585 26.1268 8.1632 26.1796 8.29137C26.2324 8.41953 26.3099 8.53603 26.4078 8.6342C26.5057 8.73236 26.622 8.81026 26.75 8.86342C26.878 8.91657 27.0152 8.94398 27.1537 8.94405L2.18772 6.17562ZM2.18772 6.17562V6.18246M2.18772 6.17562V6.18246M2.18772 6.18246V33.0218C2.18772 33.1673 2.24549 33.3068 2.34839 33.4097C2.45122 33.5125 2.59072 33.5704 2.73628 33.5704L24.3861 33.5722L25.1194 33.5722L24.6839 32.9823C23.5357 31.4271 22.9786 29.514 23.1125 27.5855C23.2463 25.6571 24.0624 23.8393 25.4144 22.4576C26.7664 21.076 28.5662 20.2208 30.4913 20.0453C32.4164 19.8697 34.3411 20.3853 35.9208 21.4995L36.5042 21.9111V21.1971L36.5042 6.18246L36.5041 6.17902C36.5034 6.09762 36.4843 6.01737 36.4482 5.94426C36.4122 5.87129 36.3602 5.80725 36.296 5.75702L36.1955 5.67851H36.0681H33.0607H32.6906V6.04859L32.6906 7.8863L32.6906 7.88722M2.18772 6.18246L32.6906 7.88722M32.6906 7.88722C32.691 8.02586 32.664 8.1632 32.6112 8.29137C32.5584 8.41953 32.4809 8.53603 32.383 8.63419C32.2851 8.73236 32.1688 8.81026 32.0408 8.86342C31.9128 8.91658 31.7756 8.94398 31.6371 8.94405C31.637 8.94405 31.637 8.94405 31.6369 8.94405H27.1539L32.6906 7.88722ZM7.7842 9.31413C7.59656 9.3146 7.41068 9.27798 7.23724 9.20639C7.0638 9.1348 6.90621 9.02966 6.77353 8.89698C6.64085 8.76431 6.5357 8.6067 6.46411 8.43325C6.39252 8.25981 6.35591 8.07393 6.35639 7.8863V6.40261V6.03254L7.7842 9.31413ZM7.7842 9.31413H12.2705H7.7842ZM27.4809 1.46942H27.1108V1.8395V7.55612V7.92619H27.4809H31.3563H31.7263V7.55612V1.8395V1.46942H31.3563H27.4809ZM8.07809 1.46942H7.70802V1.8395V7.55612V7.92619H8.07809H11.9534H12.3235V7.55612V1.8395V1.46942H11.9534H8.07809ZM27.1298 34.4307C28.3724 35.2609 29.8333 35.7039 31.3277 35.7038L38.8827 28.1488C38.8828 26.6544 38.4397 25.1935 37.6096 23.9509C36.7794 22.7083 35.5994 21.7398 34.2188 21.1679C32.8382 20.596 31.3189 20.4463 29.8532 20.7378C28.3875 21.0293 27.0412 21.7489 25.9845 22.8056C24.9278 23.8623 24.2082 25.2087 23.9167 26.6743C23.6252 28.14 23.7749 29.6593 24.3468 31.0399C24.9187 32.4205 25.8872 33.6005 27.1298 34.4307ZM31.3277 35.7038C32.3199 35.7039 33.3023 35.5085 34.2189 35.1288C35.1356 34.7492 35.9685 34.1927 36.67 33.4912C37.3716 32.7896 37.9281 31.9567 38.3077 31.04C38.6874 30.1234 38.8827 29.141 38.8827 28.1488L31.3277 35.7038Z" fill="#C34142" stroke="#DB002A" stroke-width="0.740148"/>
</svg>
